# xmcd
# 
# Track frame offsets:
#     150
#     16029
#     35263
#     54368
#     71891
#     85212
#     106374
#     123629
#     147454
#     162572
#     181211
#     200054
#     220628
#     236741
#     261176
#     282728
# 
# Disc length: 3876
# 
# Revision: 13
# Processed by: cddbd v1.5.2PL0 Copyright (c) Steve Scherf et al.
# Submitted via: fre:ac v1.0.27
# 
DISCID=f30f2210
DTITLE=De_Phazz - Death By Chocolate
DYEAR=2001
DGENRE=Acid Jazz
TTITLE0=Heartfixer
TTITLE1=Something Special
TTITLE2=Nu Chic
TTITLE3=Sabbatical
TTITLE4=Better Now
TTITLE5=Death by Chocolate
TTITLE6=Jeunesse Dorée
TTITLE7=Online
TTITLE8=Jim the Jinn
TTITLE9=Roy's Choice
TTITLE10=Trash Box
TTITLE11=Jump Over
TTITLE12=Maybe San José
TTITLE13=Love's Labour's Lost
TTITLE14=North West
TTITLE15=Saw it on the Radio
EXTD=YEAR: 2001
EXTT0=
EXTT1=
EXTT2=
EXTT3=
EXTT4=
EXTT5=
EXTT6=
EXTT7=
EXTT8=
EXTT9=
EXTT10=
EXTT11=
EXTT12=
EXTT13=
EXTT14=
EXTT15=
PLAYORDER=
